<svg width="24" height="24" viewBox="0 0 24 24" fill="none" xmlns="http://www.w3.org/2000/svg">
<path d="M7.47204 6.46731C7.76624 6.17573 8.24111 6.17784 8.53269 6.47204C8.82427 6.76624 8.82216 7.24111 8.52796 7.53269L6.76499 9.28C6.0495 9.98914 5.55869 10.4772 5.22659 10.8907C5.11867 11.0251 5.03446 11.1434 4.96908 11.25L20 11.25C20.4142 11.25 20.75 11.5858 20.75 12C20.75 12.4142 20.4142 12.75 20 12.75L4.96908 12.75C5.03446 12.8566 5.11867 12.9749 5.22659 13.1093C5.55869 13.5228 6.0495 14.0109 6.76499 14.72L8.52796 16.4673C8.82216 16.7589 8.82427 17.2338 8.53269 17.528C8.24111 17.8222 7.76624 17.8243 7.47204 17.5327L5.6773 15.7539C5.00133 15.084 4.44886 14.5364 4.05706 14.0485C3.64963 13.5412 3.35469 13.0263 3.27591 12.4082C3.25864 12.2726 3.25 12.1363 3.25 12C3.25 11.8637 3.25864 11.7274 3.27591 11.5918C3.35469 10.9737 3.64963 10.4588 4.05706 9.95146C4.44886 9.46358 5.00134 8.91604 5.67732 8.24609L7.47204 6.46731Z" fill="black"/>
</svg>
