<svg width="22" height="22" viewBox="0 0 22 22" fill="none" xmlns="http://www.w3.org/2000/svg">
<path d="M11 21C16.5228 21 21 16.5228 21 11C21 5.47715 16.5228 1 11 1C5.47715 1 1 5.47715 1 11C1 16.5228 5.47715 21 11 21Z" stroke="black" stroke-width="1.5" stroke-linecap="round" stroke-linejoin="round"/>
<path d="M7 14C7.46574 14.621 8.06966 15.125 8.76393 15.4721C9.45821 15.8193 10.2238 16 11 16C11.7762 16 12.5418 15.8193 13.2361 15.4721C13.9303 15.125 14.5343 14.621 15 14M7.009 8H7M15 8H14.991" stroke="black" stroke-width="1.5" stroke-linecap="round" stroke-linejoin="round"/>
</svg>
