<svg width="99" height="58" viewBox="0 0 99 58" fill="none" xmlns="http://www.w3.org/2000/svg">
<g filter="url(#filter0_d_1_2)">
<g clip-path="url(#clip0_1_2)">
<path fill-rule="evenodd" clip-rule="evenodd" d="M4 21.0066V6.78571H8.97V21.0065H4.1703L4 21.0066ZM12.6586 21.0065H17.6286V11.8571H25.3636V6.78571H17.6286V0.535714H12.6586V21.0065ZM4 5.10714V0H8.97V5.10714H4ZM22.3467 22.7565C21.6 22.3041 20.7834 22.0779 19.8967 22.0779H4.2517V27.1494H19.6517C19.6984 27.1494 19.745 27.1732 19.7917 27.2208C19.8384 27.2684 19.8617 27.316 19.8617 27.3636V29.8636H4.2517V37.7565C4.2517 38.6612 4.47336 39.4946 4.9167 40.2565C5.36003 41.0184 5.95503 41.6255 6.7017 42.0779C7.44837 42.5541 8.2767 42.7922 9.1867 42.7922H19.8967C20.7834 42.7922 21.6 42.5541 22.3467 42.0779C23.0934 41.6255 23.7 41.0184 24.1667 40.2565C24.61 39.4946 24.8317 38.6612 24.8317 37.7565V27.1136C24.8317 26.2089 24.61 25.3755 24.1667 24.6136C23.7 23.8518 23.0934 23.2327 22.3467 22.7565ZM9.2217 34.3993H19.8617V37.5065C19.8617 37.5541 19.8384 37.6018 19.7917 37.6493C19.745 37.6969 19.6984 37.7208 19.6517 37.7208H9.4317C9.38503 37.7208 9.33837 37.6969 9.2917 37.6493C9.24503 37.6018 9.2217 37.5541 9.2217 37.5065V34.3993ZM42.1694 22.0779C43.0561 22.0779 43.8728 22.3041 44.6194 22.7565C45.3661 23.2327 45.9728 23.8518 46.4394 24.6136C46.8828 25.3755 47.1044 26.2089 47.1044 27.1136V37.7565C47.1044 38.6612 46.8828 39.4946 46.4394 40.2565C45.9728 41.0184 45.3661 41.6255 44.6194 42.0779C43.8728 42.5541 43.0561 42.7922 42.1694 42.7922H31.4594C30.5494 42.7922 29.7211 42.5541 28.9744 42.0779C28.2278 41.6255 27.6328 41.0184 27.1894 40.2565C26.7461 39.4946 26.5244 38.6612 26.5244 37.7565V29.8636H42.1344V27.3636C42.1344 27.316 42.1111 27.2684 42.0644 27.2208C42.0178 27.1732 41.9711 27.1494 41.9244 27.1494H26.5244V22.0779H42.1694ZM42.1344 34.3993H31.4944V37.5065C31.4944 37.5541 31.5178 37.6018 31.5644 37.6493C31.6111 37.6969 31.6578 37.7208 31.7044 37.7208H41.9244C41.9711 37.7208 42.0178 37.6969 42.0644 37.6493C42.1111 37.6018 42.1344 37.5541 42.1344 37.5065V34.3993ZM94.2644 22.0779V42.7922H89.2944V22.0779H94.2644ZM94.2644 44.4708V49.5779H89.2944V44.4708H94.2644ZM84.7711 22.7565C84.0246 22.3041 83.1961 22.0779 82.2861 22.0779H74.5511V27.1494H82.0761C82.1225 27.1494 82.1696 27.1732 82.2161 27.2208C82.2625 27.2684 82.2861 27.316 82.2861 27.3636V37.7208H74.5511V42.7922H82.2861V49.0422H87.2561V27.1136C87.2561 26.2089 87.0346 25.3755 86.5911 24.6136C86.1246 23.8518 85.5175 23.2327 84.7711 22.7565ZM67.9278 22.0779C68.8143 22.0779 69.6307 22.3041 70.3778 22.7565C71.1243 23.2327 71.7307 23.8518 72.1978 24.6136C72.6407 25.3755 72.8628 26.2089 72.8628 27.1136V28.0422H67.8928V27.3636C67.8928 27.316 67.8693 27.2684 67.8228 27.2208C67.7757 27.1732 67.7293 27.1494 67.6828 27.1494H57.4625C57.4159 27.1494 57.3692 27.1732 57.3225 27.2208C57.2759 27.2684 57.2525 27.316 57.2525 27.3636V29.6851C57.2525 29.7327 57.2759 29.7684 57.3225 29.7922C57.3692 29.8398 57.4159 29.8636 57.4625 29.8636H67.9278C68.8143 29.8636 69.6307 30.0898 70.3778 30.5422C71.1243 31.0184 71.7307 31.6375 72.1978 32.3994C72.6407 33.1612 72.8628 34.0065 72.8628 34.9351V37.7565C72.8628 38.6612 72.6407 39.4946 72.1978 40.2565C71.7307 41.0184 71.1243 41.6255 70.3778 42.0779C69.6307 42.5541 68.8143 42.7922 67.9278 42.7922H57.2175C56.3075 42.7922 55.4792 42.5541 54.7325 42.0779C53.9859 41.6255 53.3909 41.0184 52.9475 40.2565C52.4809 39.4946 52.2475 38.6612 52.2475 37.7565V36.8279H57.2525V37.5065C57.2525 37.5541 57.2759 37.6018 57.3225 37.6493C57.3692 37.6969 57.4159 37.7208 57.4625 37.7208H67.6828C67.7293 37.7208 67.7757 37.6969 67.8228 37.6493C67.8693 37.6018 67.8928 37.5541 67.8928 37.5065V35.1851C67.8928 35.1375 67.8693 35.0898 67.8228 35.0422C67.7757 35.0184 67.7293 35.0065 67.6828 35.0065H57.2175C56.3075 35.0065 55.4792 34.7684 54.7325 34.2922C53.9859 33.8398 53.3909 33.2327 52.9475 32.4708C52.4809 31.7089 52.2475 30.8636 52.2475 29.9351V27.1136C52.2475 26.2089 52.4809 25.3755 52.9475 24.6136C53.3909 23.8518 53.9859 23.2327 54.7325 22.7565C55.4792 22.3041 56.3075 22.0779 57.2175 22.0779H67.9278ZM46.9825 24.3938C47.3436 23.7085 47.5241 22.9679 47.5241 22.1721V19.3506C47.5241 18.4221 47.2907 17.5768 46.8241 16.8149C46.3807 16.0531 45.7857 15.4459 45.0391 14.9935C44.2924 14.5173 43.4641 14.2792 42.5541 14.2792H32.0891C32.0424 14.2792 31.9957 14.2673 31.9491 14.2435C31.9024 14.1959 31.8791 14.1482 31.8791 14.1006V11.7792C31.8791 11.7316 31.9024 11.684 31.9491 11.6364C31.9957 11.5888 32.0424 11.5649 32.0891 11.5649H42.3091C42.3557 11.5649 42.4024 11.5888 42.4491 11.6364C42.4957 11.684 42.5191 11.7316 42.5191 11.7792V12.4578H47.5241V11.5292C47.5241 10.6245 47.2907 9.7911 46.8241 9.02922C46.3807 8.26734 45.7857 7.66019 45.0391 7.20779C44.2924 6.73162 43.4641 6.49351 42.5541 6.49351H31.8441C30.9574 6.49351 30.1407 6.73162 29.3941 7.20779C28.6474 7.66019 28.0407 8.26734 27.5741 9.02922C27.1307 9.7911 26.9091 10.6245 26.9091 11.5292V14.3506C26.9091 15.2792 27.1307 16.1245 27.5741 16.8864C28.0407 17.6482 28.6474 18.2673 29.3941 18.7435C30.1407 19.1959 30.9574 19.4221 31.8441 19.4221H42.3091C42.3557 19.4221 42.4024 19.4459 42.4491 19.4935C42.4957 19.5173 42.5191 19.5531 42.5191 19.6006V21.3649C43.3771 21.3838 44.1698 21.6137 44.8972 22.0545C45.6575 22.5393 46.2752 23.1696 46.7503 23.9454C46.8358 24.0923 46.9132 24.2418 46.9825 24.3938ZM79.2735 21.3636V19.4221H94.8835V11.5292C94.8835 10.6245 94.6621 9.7911 94.2185 9.02922C93.775 8.26734 93.18 7.66019 92.4335 7.20779C91.6871 6.73162 90.8585 6.49351 89.9485 6.49351H79.2385C78.3521 6.49351 77.535 6.73162 76.7885 7.20779C76.0421 7.66019 75.435 8.26734 74.9685 9.02922C74.525 9.7911 74.3035 10.6245 74.3035 11.5292V21.3636H79.2735ZM79.2735 14.8864H89.9135V11.7792C89.9135 11.7316 89.89 11.684 89.8435 11.6364C89.7971 11.5888 89.75 11.5649 89.7035 11.5649H79.4835C79.4371 11.5649 79.39 11.5888 79.3435 11.6364C79.2971 11.684 79.2735 11.7316 79.2735 11.7792V14.8864ZM51.9536 23.9454C51.9041 24.0262 51.8572 24.1079 51.8129 24.1903C51.5339 23.5625 51.3945 22.8897 51.3945 22.1721V11.5292C51.3945 10.6245 51.6161 9.7911 52.0595 9.02922C52.5261 8.26734 53.1328 7.66019 53.8795 7.20779C54.6261 6.73162 55.4428 6.49351 56.3295 6.49351H67.0395C67.9495 6.49351 68.778 6.73162 69.5245 7.20779C70.2709 7.66019 70.8659 8.26734 71.3095 9.02922C71.753 9.7911 71.9745 10.6245 71.9745 11.5292V19.4221H56.3645V21.3636H56.3013C55.3747 21.3636 54.5313 21.5938 53.7711 22.0545C53.0109 22.5393 52.4051 23.1696 51.9536 23.9454ZM67.0045 14.8864H56.3645V11.7792C56.3645 11.7316 56.3878 11.684 56.4345 11.6364C56.4811 11.5888 56.5278 11.5649 56.5745 11.5649H66.7945C66.8411 11.5649 66.8878 11.5888 66.9345 11.6364C66.9811 11.684 67.0045 11.7316 67.0045 11.7792V14.8864Z" fill="white"/>
</g>
</g>
<defs>
<filter id="filter0_d_1_2" x="0" y="0" width="99" height="58" filterUnits="userSpaceOnUse" color-interpolation-filters="sRGB">
<feFlood flood-opacity="0" result="BackgroundImageFix"/>
<feColorMatrix in="SourceAlpha" type="matrix" values="0 0 0 0 0 0 0 0 0 0 0 0 0 0 0 0 0 0 127 0" result="hardAlpha"/>
<feOffset dy="4"/>
<feGaussianBlur stdDeviation="2"/>
<feComposite in2="hardAlpha" operator="out"/>
<feColorMatrix type="matrix" values="0 0 0 0 0 0 0 0 0 0 0 0 0 0 0 0 0 0 0.25 0"/>
<feBlend mode="normal" in2="BackgroundImageFix" result="effect1_dropShadow_1_2"/>
<feBlend mode="normal" in="SourceGraphic" in2="effect1_dropShadow_1_2" result="shape"/>
</filter>
<clipPath id="clip0_1_2">
<rect width="91" height="50" fill="white" transform="translate(4)"/>
</clipPath>
</defs>
</svg>
