<svg width="31" height="30" viewBox="0 0 31 30" fill="none" xmlns="http://www.w3.org/2000/svg">
<g clip-path="url(#clip0_514_4048)">
<circle cx="15.5" cy="15" r="15" fill="#FBB7D0"/>
<path d="M15.5 18C16.7979 18 18.0667 17.6151 19.1459 16.894C20.2251 16.1729 21.0663 15.148 21.563 13.9489C22.0597 12.7497 22.1896 11.4302 21.9364 10.1572C21.6832 8.88422 21.0582 7.7149 20.1404 6.79711C19.2226 5.87933 18.0533 5.25432 16.7803 5.0011C15.5073 4.74788 14.1878 4.87784 12.9886 5.37454C11.7895 5.87124 10.7646 6.71238 10.0435 7.79157C9.32238 8.87077 8.9375 10.1396 8.9375 11.4375C8.9375 13.178 9.6289 14.8472 10.8596 16.0779C12.0903 17.3086 13.7595 18 15.5 18ZM15.5 19.875C11.4324 19.875 3.3125 22.3875 3.3125 27.375V31.125H27.6875V27.375C27.6875 22.3875 19.5676 19.875 15.5 19.875Z" fill="black"/>
</g>
<defs>
<clipPath id="clip0_514_4048">
<rect x="0.5" width="30" height="30" rx="15" fill="white"/>
</clipPath>
</defs>
</svg>
